<svg width="300" height="300" viewBox="0 0 30 30" xmlns="http://www.w3.org/2000/svg">
<path d="M15 1.875C16.2432 1.875 17.4355 2.36886 18.3146 3.24794C19.1936 4.12701 19.6875 5.3193 19.6875 6.5625V7.5H10.3125V6.5625C10.3125 5.3193 10.8064 4.12701 11.6854 3.24794C12.5645 2.36886 13.7568 1.875 15 1.875ZM21.5625 7.5V6.5625C21.5625 4.82202 20.8711 3.15282 19.6404 1.92211C18.4097 0.691404 16.7405 0 15 0C13.2595 0 11.5903 0.691404 10.3596 1.92211C9.1289 3.15282 8.4375 4.82202 8.4375 6.5625V7.5H1.875V26.25C1.875 27.2446 2.27009 28.1984 2.97335 28.9016C3.67661 29.6049 4.63044 30 5.625 30H24.375C25.3696 30 26.3234 29.6049 27.0266 28.9016C27.7299 28.1984 28.125 27.2446 28.125 26.25V7.5H21.5625ZM3.75 9.375H26.25V26.25C26.25 26.7473 26.0525 27.2242 25.7008 27.5758C25.3492 27.9275 24.8723 28.125 24.375 28.125H5.625C5.12772 28.125 4.65081 27.9275 4.29917 27.5758C3.94754 27.2242 3.75 26.7473 3.75 26.25V9.375Z" />
</svg>
